<?xml version="1.0" encoding="utf-8"?><svg xmlns="http://www.w3.org/2000/svg" xmlns:xlink="http://www.w3.org/1999/xlink" width="1981" height="110" preserveAspectRatio="xMidYMid" viewBox="0 0 1981 110" style="z-index:1;display:block;background-color:rgb(241, 242, 243);animation-play-state:paused" ><g transform="translate(990.5,55) scale(1,-1) translate(-990.5,-55)" style="animation-play-state:paused" ><linearGradient id="lg-0.3621040149715973" x1="0" x2="1" y1="0" y2="0" style="animation-play-state:paused" ><stop stop-color="#34bf49" offset="0" style="animation-play-state:paused" ></stop>

  
<stop stop-color="#34bf49" offset="1" style="animation-play-state:paused" ></stop></linearGradient>
<path d="M 0 0 L 0 17.9708 Q 330.167 128.376 660.333 89.8784 T 1320.67 56.7837 T 1981 55.9822 L 1981 0 Z" fill="url(#lg-0.3621040149715973)" opacity="0.4" style="opacity:0.4;animation-play-state:paused" ></path>
<path d="M 0 0 L 0 36.0542 Q 330.167 95.8452 660.333 70.0334 T 1320.67 32.8926 T 1981 40.0749 L 1981 0 Z" fill="url(#lg-0.3621040149715973)" opacity="0.4" style="opacity:0.4;animation-play-state:paused" ></path>
<path d="M 0 0 L 0 75.4815 Q 330.167 57.9694 660.333 36.438 T 1320.67 13.4535 T 1981 36.2189 L 1981 0 Z" fill="url(#lg-0.3621040149715973)" opacity="0.4" style="opacity:0.4;animation-play-state:paused" ></path>
<path d="M 0 0 L 0 85.3956 Q 330.167 125.728 660.333 78.6422 T 1320.67 -3.92142 T 1981 50.8268 L 1981 0 Z" fill="url(#lg-0.3621040149715973)" opacity="0.4" style="opacity:0.4;animation-play-state:paused" ></path>
<path d="M 0 0 L 0 26.7372 Q 330.167 72.38 660.333 38.4816 T 1320.67 52.8817 T 1981 30.723 L 1981 0 Z" fill="url(#lg-0.3621040149715973)" opacity="0.4" style="opacity:0.4;animation-play-state:paused" ></path></g></svg>